<?xml version="1.0" standalone="no"?>
<!DOCTYPE svg PUBLIC "-//W3C//DTD SVG 20010904//EN"
 "http://www.w3.org/TR/2001/REC-SVG-20010904/DTD/svg10.dtd">
<svg version="1.0" xmlns="http://www.w3.org/2000/svg"
 width="300.000000pt" height="168.000000pt" viewBox="0 0 300.000000 168.000000"
 preserveAspectRatio="xMidYMid meet">

<g transform="translate(0.000000,168.000000) scale(0.100000,-0.100000)"
fill="#000000" stroke="none">
<path d="M1390 1279 c0 -6 -7 -8 -16 -5 -8 3 -12 2 -9 -4 3 -6 -1 -10 -9 -10
-9 0 -25 -9 -35 -19 -18 -18 -20 -18 -26 -3 -3 9 -9 12 -13 7 -12 -18 -71 -44
-77 -35 -3 5 -12 7 -19 4 -8 -3 -17 -1 -21 5 -3 6 -11 11 -17 11 -6 0 2 -10
18 -22 16 -12 31 -25 34 -28 13 -16 56 -40 70 -40 8 0 26 16 40 36 14 19 43
53 65 74 22 22 34 40 28 40 -7 0 -13 -5 -13 -11z"/>
<path d="M1479 1219 l-24 -20 28 17 c15 9 27 18 27 20 0 8 -8 4 -31 -17z"/>
<path d="M2049 1177 c4 -57 -14 -127 -32 -127 -7 0 -28 -8 -47 -19 -28 -14
-68 -20 -190 -25 -189 -9 -178 -9 -215 -1 -86 19 -128 62 -105 106 7 13 24 37
39 53 l26 30 -35 -28 c-99 -80 -90 -148 23 -180 33 -10 114 -17 220 -19 92 -3
171 -7 174 -11 4 -3 0 -6 -8 -6 -12 0 -12 -2 0 -9 23 -15 7 -35 -56 -72 -111
-66 -160 -82 -268 -86 -71 -3 -114 0 -148 10 -39 13 -46 13 -37 2 39 -47 237
-69 279 -31 10 9 47 21 81 26 108 15 247 118 301 223 26 50 35 125 20 170 -18
54 -26 52 -22 -6z m-49 -157 c0 -5 -5 -10 -11 -10 -5 0 -7 5 -4 10 3 6 8 10
11 10 2 0 4 -4 4 -10z m-80 -30 c0 -5 -5 -10 -11 -10 -5 0 -7 5 -4 10 3 6 8
10 11 10 2 0 4 -4 4 -10z"/>
<path d="M1075 1076 c-20 -8 -25 -15 -17 -20 18 -11 59 1 66 19 7 18 -9 19
-49 1z"/>
<path d="M1250 1051 c0 -5 7 -11 14 -14 10 -4 13 -1 9 9 -6 15 -23 19 -23 5z"/>
<path d="M960 1040 c-8 -5 -10 -10 -5 -10 6 0 17 5 25 10 8 5 11 10 5 10 -5 0
-17 -5 -25 -10z"/>
<path d="M1265 1003 c8 -18 18 -33 20 -33 10 0 4 16 -16 40 l-20 25 16 -32z"/>
<path d="M1236 965 c-3 -8 0 -17 6 -21 7 -5 8 -2 3 6 -5 9 -4 11 4 6 6 -4 9
-16 6 -26 -3 -10 -1 -21 5 -25 6 -4 9 -12 7 -19 -3 -6 2 -18 11 -26 14 -12 15
-11 8 11 -4 13 -7 38 -7 56 2 36 -32 66 -43 38z"/>
<path d="M1160 930 c-9 -6 -10 -10 -3 -10 6 0 15 5 18 10 8 12 4 12 -15 0z"/>
<path d="M965 876 c-6 -8 -137 -54 -293 -102 -155 -48 -290 -93 -299 -100 -16
-11 -16 -15 2 -53 10 -23 25 -46 33 -50 10 -6 140 34 374 113 306 103 358 124
354 139 -2 11 2 17 12 17 8 0 12 3 8 8 -15 14 -31 7 -36 -18 -8 -41 -41 -33
-54 14 -6 22 -17 41 -23 43 -10 4 -10 -3 -2 -26 6 -17 8 -38 5 -46 -10 -27
-34 -16 -46 23 -16 47 -23 55 -35 38z"/>
<path d="M1205 869 c-11 -17 1 -21 15 -4 8 9 8 15 2 15 -6 0 -14 -5 -17 -11z"/>
<path d="M1145 750 c-4 -7 -18 -9 -32 -5 -16 4 -22 2 -18 -5 3 -5 2 -10 -4
-10 -6 0 -8 -6 -5 -13 2 -7 -5 -60 -16 -118 -11 -57 -27 -142 -35 -189 -24
-134 -60 -197 -85 -149 -6 11 -10 32 -8 47 l3 27 -109 3 c-66 2 -113 -1 -120
-8 -7 -7 -7 -10 1 -10 6 0 22 -24 36 -52 14 -29 39 -68 57 -86 68 -68 223 -82
314 -28 87 51 102 89 151 382 14 84 25 157 25 163 0 11 -62 43 -90 46 -8 1
-25 5 -37 9 -12 4 -24 2 -28 -4z"/>
<path d="M1772 723 c-13 -3 -26 -11 -29 -19 -4 -11 47 -294 82 -460 3 -13 15
-24 30 -27 30 -5 115 11 115 23 0 4 28 7 63 7 81 -1 126 25 157 89 18 36 21
54 15 92 -22 152 -123 227 -253 189 l-50 -14 -12 63 -12 64 -42 -1 c-22 -1
-51 -4 -64 -6z m257 -224 c17 -38 22 -66 19 -115 -2 -61 -4 -64 -28 -64 -14 0
-30 4 -37 8 -17 11 -39 69 -47 123 -6 37 -3 50 14 72 33 41 54 35 79 -24z"/>
<path d="M2407 503 c-14 -13 -6 -23 18 -23 18 0 23 4 19 15 -6 16 -26 20 -37
8z"/>
<path d="M1578 404 c3 -19 7 -22 13 -12 7 10 9 8 9 -7 1 -18 2 -17 11 4 11 27
11 26 -17 35 -19 6 -21 3 -16 -20z"/>
<path d="M2370 373 c0 -5 5 -15 10 -23 8 -13 10 -13 10 0 0 11 3 11 12 2 14
-14 38 -16 38 -4 0 9 -44 32 -60 32 -6 0 -10 -3 -10 -7z"/>
<path d="M2380 320 c0 -12 8 -12 35 0 18 8 17 9 -7 9 -16 1 -28 -3 -28 -9z"/>
<path d="M1330 211 c5 -11 15 -23 21 -27 6 -3 3 5 -6 20 -20 30 -30 35 -15 7z"/>
<path d="M1483 93 c9 -2 25 -2 35 0 9 3 1 5 -18 5 -19 0 -27 -2 -17 -5z"/>
</g>
</svg>
