<?xml version="1.0" standalone="no"?>
<!DOCTYPE svg PUBLIC "-//W3C//DTD SVG 20010904//EN"
 "http://www.w3.org/TR/2001/REC-SVG-20010904/DTD/svg10.dtd">
<svg version="1.0" xmlns="http://www.w3.org/2000/svg"
 width="208.000000pt" height="256.000000pt" viewBox="0 0 208.000000 256.000000"
 preserveAspectRatio="xMidYMid meet">

<g transform="translate(0.000000,256.000000) scale(0.100000,-0.100000)"
fill="#000000" stroke="none">
<path d="M675 2484 c-74 -39 -80 -51 -7 -15 34 17 62 33 62 36 0 8 -1 7 -55
-21z"/>
<path d="M1450 2458 c3 -3 33 -28 66 -54 128 -102 220 -241 266 -400 18 -64
23 -102 22 -204 0 -113 -3 -134 -32 -220 -43 -129 -92 -210 -187 -306 -129
-131 -265 -197 -459 -226 -69 -9 -103 -9 -172 0 -194 29 -330 95 -459 226 -95
96 -144 177 -187 306 -29 86 -32 107 -32 220 -1 101 4 140 22 203 46 160 128
286 262 400 58 50 32 37 -43 -21 -70 -55 -153 -154 -201 -243 -258 -470 -4
-1053 519 -1190 112 -30 298 -30 410 0 333 88 572 361 615 704 39 306 -117
626 -385 792 -16 11 -28 16 -25 13z"/>
<path d="M900 2293 c0 -5 12 -47 26 -95 l27 -88 92 0 91 0 27 83 c15 46 27 89
27 95 0 9 -40 12 -145 12 -80 0 -145 -3 -145 -7z"/>
<path d="M960 2064 c0 -9 -20 -174 -45 -367 -25 -193 -45 -359 -43 -368 2 -10
41 -47 87 -82 l84 -65 79 61 c43 33 83 66 88 71 5 7 -9 160 -36 381 -24 204
-44 373 -44 378 0 4 -38 7 -85 7 -72 0 -85 -3 -85 -16z"/>
<path d="M818 1829 l-107 -178 16 -40 15 -39 43 15 c36 12 47 23 73 71 25 47
34 84 51 202 11 80 19 145 18 146 -1 1 -50 -78 -109 -177z"/>
<path d="M170 537 c0 -90 -3 -106 -19 -121 -14 -13 -28 -16 -49 -11 -23 5 -31
2 -36 -11 -9 -23 10 -34 59 -34 76 1 95 36 95 181 0 99 0 99 -25 99 l-25 0 0
-103z"/>
<path d="M324 621 c-34 -21 -64 -75 -64 -115 0 -71 55 -136 122 -143 107 -11
178 96 134 202 -29 68 -126 96 -192 56z m127 -50 c73 -74 4 -195 -88 -156 -59
25 -69 123 -16 165 36 28 69 25 104 -9z"/>
<path d="M580 499 l0 -141 89 4 c70 2 93 7 110 22 30 27 28 80 -3 103 l-23 18
19 26 c24 32 17 83 -12 99 -10 6 -55 10 -99 10 l-81 0 0 -141z m148 89 c33
-33 1 -68 -62 -68 -35 0 -36 1 -36 40 l0 40 43 0 c24 0 48 -5 55 -12z m18
-134 c9 -35 -6 -46 -65 -52 l-51 -5 0 42 0 41 55 0 c50 0 55 -2 61 -26z"/>
<path d="M940 500 l0 -140 25 0 c24 0 25 3 25 60 l0 60 70 0 70 0 0 -60 c0
-57 1 -60 25 -60 l25 0 0 140 0 140 -25 0 c-24 0 -25 -3 -25 -55 l0 -55 -70 0
-70 0 0 55 c0 52 -1 55 -25 55 l-25 0 0 -140z"/>
<path d="M1230 563 c0 -100 13 -146 51 -177 65 -55 166 -21 189 62 5 20 10 72
10 115 0 75 -1 77 -24 77 -23 0 -24 -2 -28 -95 -2 -81 -6 -98 -25 -116 -11
-12 -33 -21 -48 -21 -15 0 -37 9 -48 21 -19 18 -23 35 -25 116 -4 93 -5 95
-28 95 -23 0 -24 -2 -24 -77z"/>
<path d="M1540 500 l0 -140 25 0 c25 0 25 1 25 91 l0 92 73 -91 c52 -67 78
-92 95 -92 22 0 22 1 22 140 l0 140 -25 0 c-24 0 -24 -2 -27 -92 l-3 -93 -74
93 c-105 130 -111 128 -111 -48z"/>
<path d="M1810 620 c0 -17 7 -20 45 -20 l45 0 0 -120 0 -120 25 0 24 0 3 118
3 117 43 3 c34 3 42 7 42 23 0 18 -8 19 -115 19 -108 0 -115 -1 -115 -20z"/>
<path d="M182 170 c-4 -10 -5 -41 -2 -67 l5 -48 3 42 c2 29 8 43 20 46 16 4
15 5 0 6 -10 0 -18 5 -18 11 0 5 8 14 18 19 16 10 16 10 -1 11 -10 0 -21 -9
-25 -20z"/>
<path d="M235 180 c-3 -5 -1 -10 4 -10 6 0 11 5 11 10 0 6 -2 10 -4 10 -3 0
-8 -4 -11 -10z"/>
<path d="M420 166 c0 -19 -4 -23 -20 -19 -14 4 -23 -2 -32 -22 -15 -34 -1 -60
36 -61 25 -1 26 0 26 62 0 35 -2 64 -5 64 -3 0 -5 -11 -5 -24z m-5 -62 c0 -19
-6 -30 -17 -32 -21 -4 -34 34 -17 54 18 22 34 11 34 -22z"/>
<path d="M942 138 c-2 -60 -13 -78 -37 -58 -20 16 -19 26 5 50 15 15 16 20 5
20 -23 0 -39 -39 -26 -66 11 -25 27 -30 49 -15 9 5 12 26 9 67 l-3 59 -2 -57z"/>
<path d="M1521 127 c0 -38 3 -66 7 -63 5 3 7 18 4 34 -4 29 18 50 39 36 16 -9
10 -52 -8 -64 -16 -10 -16 -10 2 -8 16 3 20 11 20 43 0 37 -2 40 -27 38 -22
-1 -28 3 -31 25 -2 15 -5 -4 -6 -41z"/>
<path d="M243 105 c0 -27 2 -38 4 -22 2 15 2 37 0 50 -2 12 -4 0 -4 -28z"/>
<path d="M281 101 l2 -46 6 40 c4 26 12 41 23 43 13 3 18 -6 21 -40 l4 -43 -1
45 c-1 42 -3 45 -28 46 -27 1 -28 -1 -27 -45z"/>
<path d="M530 110 c16 -31 18 -45 10 -60 -6 -11 -7 -20 -2 -20 6 0 12 8 15 17
2 10 8 27 13 37 5 14 4 17 -5 12 -7 -5 -15 3 -22 23 -6 17 -15 31 -20 31 -5 0
0 -18 11 -40z"/>
<path d="M576 135 c-9 -26 -7 -32 5 -12 6 10 9 21 6 23 -2 3 -7 -2 -11 -11z"/>
<path d="M609 129 c-8 -16 -8 -28 0 -45 18 -41 71 -25 71 21 0 44 -50 61 -71
24z m56 -24 c0 -23 -5 -30 -19 -30 -28 0 -43 29 -26 50 21 25 45 14 45 -20z"/>
<path d="M701 113 c-1 -46 9 -58 39 -48 16 5 20 14 19 48 l-2 42 -6 -40 c-4
-26 -11 -40 -21 -40 -10 0 -17 14 -21 40 l-6 40 -2 -42z"/>
<path d="M791 105 l1 -50 8 40 c5 22 4 44 -1 50 -5 5 -9 -11 -8 -40z"/>
<path d="M981 105 l1 -50 8 40 c5 22 4 44 -1 50 -5 5 -9 -11 -8 -40z"/>
<path d="M1049 129 c-8 -16 -8 -28 0 -45 10 -24 44 -33 55 -15 4 5 -3 7 -13 4
-13 -3 -23 2 -30 16 -11 19 -9 21 21 22 l33 1 -30 8 c-24 5 -27 8 -13 14 9 4
22 4 29 0 8 -4 9 -3 5 4 -12 19 -44 14 -57 -9z"/>
<path d="M1146 142 c-3 -5 4 -8 16 -8 12 1 23 -5 25 -11 3 -8 -4 -13 -15 -13
-23 0 -46 -25 -37 -40 3 -5 14 -10 23 -10 15 1 15 2 -2 11 -15 9 -16 13 -5 20
22 14 42 11 36 -6 -4 -8 -2 -17 3 -20 14 -9 12 59 -2 73 -14 14 -35 16 -42 4z"/>
<path d="M1221 101 l2 -46 6 40 c4 26 11 40 21 40 10 0 17 -14 21 -40 l5 -40
5 40 c3 27 9 40 19 40 10 0 17 -14 21 -40 l7 -40 -2 45 -1 45 -52 1 -53 1 1
-46z"/>
<path d="M1392 98 c-1 -34 -7 -58 -14 -61 -10 -4 -10 -6 0 -6 18 -1 24 20 19
75 l-3 49 -2 -57z"/>
<path d="M1429 129 c-8 -16 -8 -28 0 -45 18 -41 71 -25 71 21 0 44 -50 61 -71
24z m56 -24 c0 -23 -5 -30 -19 -30 -28 0 -43 29 -26 50 21 25 45 14 45 -20z"/>
<path d="M1640 103 c0 -53 18 -57 22 -5 4 52 31 50 39 -3 l7 -40 -2 45 c-1 44
-2 45 -33 45 -32 1 -33 0 -33 -42z"/>
<path d="M1739 129 c-8 -16 -8 -28 0 -45 18 -41 71 -25 71 21 0 44 -50 61 -71
24z m56 -8 c14 -44 -24 -67 -48 -29 -8 12 -7 21 2 32 18 21 38 20 46 -3z"/>
<path d="M1821 145 c1 -19 18 -51 18 -35 0 8 -4 22 -9 30 -5 8 -9 11 -9 5z"/>
<path d="M1876 141 c-5 -8 -4 -16 2 -20 6 -3 14 -19 17 -34 8 -29 25 -37 25
-12 0 8 -4 15 -9 15 -4 0 -12 15 -17 32 -7 24 -12 29 -18 19z"/>
<path d="M1926 135 c-3 -9 -6 -22 -5 -28 0 -7 5 -1 10 12 5 13 8 26 5 28 -2 2
-6 -3 -10 -12z"/>
<path d="M1852 94 c-7 -8 -10 -19 -6 -26 5 -7 10 -3 16 12 10 28 7 33 -10 14z"/>
</g>
</svg>
